# xmcd
#
# Track frame offsets:
#	150
#	18950
#	38124
#	60429
#	77956
#	99598
#	120815
#	137612
#	155366
#	178256
#	195201
#	202731
#
# Disc length: 3059 seconds
#
# Revision: 1
# Processed by: cddbd v1.4PL0 Copyright (c) Steve Scherf et al.
# Submitted via: audiograbber 1.80.04
#
DISCID=890bf10c
DTITLE=The Blue Bishops - Deep
DYEAR=2002
DGENRE=Blues
TTITLE0=Stop Breaking Down
TTITLE1=Nothing To Say
TTITLE2=No Religious Man
TTITLE3=Words Left Unsaid
TTITLE4=I Remember You
TTITLE5=Road Of Love
TTITLE6=Vinyl Heart
TTITLE7=Lonely Riverside
TTITLE8=Hip Shake Boogie
TTITLE9=Bar Room Blues
TTITLE10=Bishop's Finger
TTITLE11=Highway 61
EXTD=
EXTT0=
EXTT1=
EXTT2=
EXTT3=
EXTT4=
EXTT5=
EXTT6=
EXTT7=
EXTT8=
EXTT9=
EXTT10=
EXTT11=
PLAYORDER=
